<?xml version="1.0" standalone="no"?><!DOCTYPE svg PUBLIC "-//W3C//DTD SVG 1.1//EN" "http://www.w3.org/Graphics/SVG/1.1/DTD/svg11.dtd"><svg t="1727703637957" class="icon" viewBox="0 0 1024 1024" version="1.1" xmlns="http://www.w3.org/2000/svg" p-id="16673" xmlns:xlink="http://www.w3.org/1999/xlink" width="200" height="200"><path d="M1024 1024H0V0h1024zM51.2 972.8h921.6V51.2H51.2z" p-id="16674"></path><path d="M102.4 486.4H0v51.2h102.4v-51.2zM1024 486.4h-102.4v51.2h102.4v-51.2zM550.4 12.8h-51.2V153.6h51.2V12.8zM550.4 870.4h-51.2v140.8h51.2V870.4zM281.6 614.4h200.704v66.56H216.576v-102.4a143.872 143.872 0 0 1 25.6-96.256A59.904 59.904 0 0 1 269.312 460.8a145.408 145.408 0 0 1 46.08-5.12h51.2a61.952 61.952 0 0 0 35.84-7.68 39.424 39.424 0 0 0 16.896-34.816 43.008 43.008 0 0 0-15.36-36.864 63.488 63.488 0 0 0-37.376-8.704H221.184V302.592h158.208A111.616 111.616 0 0 1 460.8 326.656a94.208 94.208 0 0 1 21.504 36.352 171.008 171.008 0 0 1 7.168 51.2 164.352 164.352 0 0 1-9.216 57.344 74.752 74.752 0 0 1-25.088 36.864 120.832 120.832 0 0 1-72.192 17.92h-42.496a138.752 138.752 0 0 0-34.304 3.072 30.72 30.72 0 0 0-16.896 12.288 65.024 65.024 0 0 0-7.68 38.4zM530.944 302.592h130.048a197.12 197.12 0 0 1 75.776 11.776 116.736 116.736 0 0 1 65.536 80.896 342.016 342.016 0 0 1 12.8 96.256 363.52 363.52 0 0 1-12.288 95.744 121.856 121.856 0 0 1-39.424 68.096 111.104 111.104 0 0 1-38.4 18.432 323.584 323.584 0 0 1-64 4.608h-130.048z m65.024 67.072v241.664h65.024a68.096 68.096 0 0 0 59.392-23.04 113.664 113.664 0 0 0 16.384-40.96 252.928 252.928 0 0 0 6.144-56.32 226.304 226.304 0 0 0-7.168-60.928 102.4 102.4 0 0 0-18.944-41.472 73.728 73.728 0 0 0-55.296-18.944z"  p-id="16675"></path></svg>