<svg t="1727621496336" class="icon" viewBox="0 0 1024 1024" version="1.1" xmlns="http://www.w3.org/2000/svg" p-id="18572" width="200" height="200"><path d="M32.53899265 708.11045692c-13.33401378-13.33401378-13.33401378-35.15330892 0-48.48732138L165.27303739 526.88909082c16.24325281-16.24325281 41.33544233-36.00183707 69.33687017-37.82011156L834.76173714 443.12724229 94.48154601 218.99459515l104.12652448 203.04066126c8.60649957 16.84934454 1.9394927 37.57767447-14.90985117 46.1841747-16.84934454 8.60649957-37.57767447 1.9394927-46.18417403-14.90985184L9.62873226 203.72108865C-5.76599241 174.50747737 7.81045845 154.870112 12.29553556 149.65772429c4.48507777-5.21238703 21.57685807-21.57685807 52.72996273-11.27330155L996.34573855 420.45941901c10.66721049 3.15167613 18.66761903 11.15208466 22.30416799 20.84954813 5.81847875 4.60629533 9.93990123 10.66721049 12.24304922 17.8190909 2.90923905 8.97015488 6.18213338 31.88041393-23.88000673 50.30559652L426.25604841 899.87781598c-0.48487284 0.24243642-0.84852814 0.60609172-1.33340165 0.8485288-16.48568991 9.93990123-35.88061885 12.84914027-53.21483624 7.87918971-15.75837998-4.36385889-28.60752023-14.78863363-36.00183639-29.21361134l-130.06724145-248.13387144c-8.72771779-16.72812633-2.30314733-37.45645626 14.54619652-46.30539293 16.72812633-8.72771779 37.45645626-2.30314733 46.30539229 14.54619721l126.06703783 240.73955395 494.08581308-332.13815636L239.57985752 557.31488555c-2.78802083 0.36365529-13.33401378 5.33360525-25.94071631 17.9403091l-132.73404477 132.73404473c-13.21279556 13.45523198-35.03209072 13.45523198-48.36610379 0.12121756z" p-id="18573"></path></svg>