<?xml version="1.0" standalone="no"?><!DOCTYPE svg PUBLIC "-//W3C//DTD SVG 1.1//EN" "http://www.w3.org/Graphics/SVG/1.1/DTD/svg11.dtd"><svg t="1727600954997" class="icon" viewBox="0 0 1024 1024" version="1.1" xmlns="http://www.w3.org/2000/svg" p-id="30195" xmlns:xlink="http://www.w3.org/1999/xlink" width="200" height="200"><path d="M0 0m68.608 0l886.784 0q68.608 0 68.608 68.608l0 886.784q0 68.608-68.608 68.608l-886.784 0q-68.608 0-68.608-68.608l0-886.784q0-68.608 68.608-68.608Z" fill="#D89844" p-id="30196"></path><path d="M85.76 85.76m32.128 0l788.224 0q32.128 0 32.128 32.128l0 788.224q0 32.128-32.128 32.128l-788.224 0q-32.128 0-32.128-32.128l0-788.224q0-32.128 32.128-32.128Z" fill="#FFC200" p-id="30197"></path><path d="M512 551.424v198.912q4.224 126.976-137.6 122.752-101.504-6.528-109.952-84.736 2.048-57.088 51.2-59.136 48.64 2.048 51.2 46.464c-1.408 26.88-14.72 40.96-40.192 42.368a70.528 70.528 0 0 1-27.52-6.4c8.448 21.248 28.928 33.152 61.44 35.968q59.136-2.048 61.312-54.912V551.424c2.816-25.6-16.256-37.248-57.088-35.968v-21.12H563.2v21.12c-37.12-1.28-54.144 10.624-51.2 35.968zM592.384 866.688V722.816h23.168q33.92 122.752 118.528 124.8c45.056-1.408 68.352-21.76 69.76-61.312q0-35.84-88.832-65.664-120.576-42.24-120.576-109.952 6.4-116.352 126.976-122.624a148.352 148.352 0 0 1 76.8 21.12 50.304 50.304 0 0 0 16.896 6.272c5.632 0 11.264-4.864 16.896-14.72a25.6 25.6 0 0 1 4.224-6.4h21.248V623.36h-21.888Q806.4 515.456 729.6 513.408q-61.44 2.048-64 52.864 0 38.4 86.784 65.536 124.8 40.32 124.8 118.528-8.448 109.952-131.2 122.752a203.648 203.648 0 0 1-88.832-21.248 64 64 0 0 0-21.12-6.272c-7.168 0-14.08 6.272-21.248 18.944l-2.048 2.176z" fill="#FFFFFF" p-id="30198"></path></svg>