                <svg
                  height="1024"
                  node-id="1"
                  sillyvg="true"
                  template-height="1024"
                  template-width="1024"
                  version="1.1"
                  viewBox="0 0 1024 1024"
                  width="1024"
                  xmlns="http://www.w3.org/2000/svg"
                  xmlns:xlink="http://www.w3.org/1999/xlink"
                >
                  <defs node-id="54">
                    <clipPath id="clip-花草" node-id="3">
                      <path
                        d="M 0.00 0.00 L 1024.00 0.00 L 1024.00 1024.00 L 0.00 1024.00 Z"
                        fill="#000000"
                        fill-rule="nonzero"
                        node-id="57"
                        stroke="none"
                        target-height="1024"
                        target-width="1024"
                        target-x="0"
                        target-y="0"
                      />
                    </clipPath>
                  </defs>
                  <g clip-path="url(#clip-花草)" id="花草" node-id="5">
                    <path
                      d="M 772.60 562.90 L 770.50 572.20 L 768.00 579.80 L 764.80 588.30 L 760.00 599.20 L 756.30 606.60 L 746.00 624.30 L 740.00 633.40 L 732.90 643.20 L 718.10 661.50 L 703.00 677.90 L 694.10 686.70 L 675.50 703.60 L 664.80 712.50 L 653.10 721.70 L 641.50 730.40 L 628.80 739.20 L 615.00 748.30 L 600.00 757.60"
                      fill="none"
                      group-id="1,7"
                      id="路径_107"
                      node-id="8"
                      stroke="#368679"
                      stroke-linecap="butt"
                      stroke-width="4"
                      target-height="194.69995"
                      target-width="172.59998"
                      target-x="600"
                      target-y="562.9"
                    />
                    <path
                      d="M 718.70 580.00 L 720.40 592.60 L 721.80 605.70 L 722.70 620.80 L 722.90 628.70 L 722.20 643.80 L 721.20 650.40 L 720.20 654.70 L 717.60 661.30"
                      fill="none"
                      group-id="1,8"
                      id="路径_108"
                      node-id="9"
                      stroke="#368679"
                      stroke-linecap="butt"
                      stroke-width="4"
                      target-height="81.29999"
                      target-width="5.300049"
                      target-x="717.6"
                      target-y="580"
                    />
                    <path
                      d="M 808.50 602.40 L 796.90 603.20 L 785.30 604.50 L 772.50 606.90 L 766.20 608.50 L 760.40 610.50 L 756.70 612.10 L 751.00 615.60"
                      fill="none"
                      group-id="1,9"
                      id="路径_109"
                      node-id="10"
                      stroke="#368679"
                      stroke-linecap="butt"
                      stroke-width="4"
                      target-height="13.199951"
                      target-width="57.5"
                      target-x="751"
                      target-y="602.4"
                    />
                    <path
                      d="M 793.10 665.30 L 778.50 666.90 L 762.80 669.30 L 743.50 673.20 L 733.20 675.80 L 722.40 679.10 L 711.70 682.80 L 701.00 687.20 L 694.10 690.40 L 681.10 697.80"
                      fill="none"
                      group-id="1,10"
                      id="路径_110"
                      node-id="11"
                      stroke="#368679"
                      stroke-linecap="butt"
                      stroke-width="4"
                      target-height="32.5"
                      target-width="112"
                      target-x="681.1"
                      target-y="665.3"
                    />
                    <path
                      d="M 651.60 721.50 L 656.70 697.20 L 660.00 674.20 L 661.00 658.20 L 661.00 650.70 L 660.70 645.70 L 659.50 637.10"
                      fill="none"
                      group-id="1,11"
                      id="路径_111"
                      node-id="12"
                      stroke="#368679"
                      stroke-linecap="butt"
                      stroke-width="4"
                      target-height="84.400024"
                      target-width="9.400024"
                      target-x="651.6"
                      target-y="637.1"
                    />
                    <path
                      d="M 753.90 731.00 L 736.30 730.20 L 716.70 730.40 L 705.20 731.00 L 692.10 732.20 L 673.90 734.60 L 654.30 738.40 L 634.10 743.80 L 624.00 747.10 L 614.00 750.90 L 603.90 755.30"
                      fill="none"
                      group-id="1,12"
                      id="路径_112"
                      node-id="13"
                      stroke="#368679"
                      stroke-linecap="butt"
                      stroke-width="4"
                      target-height="25.099976"
                      target-width="150"
                      target-x="603.9"
                      target-y="730.2"
                    />
                    <path
                      d="M 723.30 578.60 L 723.30 580.30 L 722.90 581.90 L 722.00 583.30 L 720.90 584.50 L 719.40 585.30 L 717.70 585.70 L 716.00 585.70 L 714.40 585.30 L 713.00 584.40 L 711.90 583.20 L 711.10 581.80 L 710.60 580.10 L 710.60 578.40 L 711.10 576.80 L 711.90 575.40 L 713.10 574.20 L 714.50 573.40 L 716.20 573.00 L 717.90 573.00 L 719.50 573.40 L 720.90 574.30 L 722.10 575.50 L 722.90 576.90 L 723.30 578.60 Z"
                      fill="#b9539f"
                      fill-rule="nonzero"
                      group-id="1,13"
                      id="椭圆_3"
                      node-id="14"
                      stroke="none"
                      target-height="12.700012"
                      target-width="12.700012"
                      target-x="710.6"
                      target-y="573"
                    />
                    <path
                      d="M 779.10 558.80 L 779.10 560.50 L 778.60 562.10 L 777.80 563.50 L 776.60 564.70 L 775.20 565.50 L 773.50 565.90 L 771.80 565.90 L 770.20 565.50 L 768.80 564.60 L 767.60 563.50 L 766.80 562.10 L 766.40 560.40 L 766.40 558.60 L 766.80 557.00 L 767.70 555.60 L 768.80 554.50 L 770.30 553.70 L 772.00 553.20 L 773.70 553.20 L 775.30 553.70 L 776.70 554.50 L 777.80 555.70 L 778.60 557.10 L 779.10 558.80 Z"
                      fill="#b9539f"
                      fill-rule="nonzero"
                      group-id="1,14"
                      id="椭圆_4"
                      node-id="15"
                      stroke="none"
                      target-height="12.700012"
                      target-width="12.699951"
                      target-x="766.4"
                      target-y="553.2"
                    />
                    <path
                      d="M 817.40 602.30 L 817.30 603.90 L 816.90 605.30 L 816.20 606.60 L 813.80 608.40 L 812.30 608.80 L 810.70 608.80 L 808.00 607.60 L 806.90 606.50 L 806.20 605.30 L 805.80 603.70 L 805.80 602.10 L 807.00 599.40 L 809.30 597.60 L 810.90 597.20 L 812.50 597.20 L 815.20 598.40 L 817.00 600.70 L 817.40 602.30 Z"
                      fill="#b9539f"
                      fill-rule="nonzero"
                      group-id="1,15"
                      id="椭圆_5"
                      node-id="16"
                      stroke="none"
                      target-height="11.599976"
                      target-width="11.600037"
                      target-x="805.8"
                      target-y="597.2"
                    />
                    <path
                      d="M 805.20 666.40 L 805.20 668.40 L 804.70 670.20 L 803.80 671.80 L 802.40 673.10 L 800.80 674.00 L 798.90 674.50 L 796.90 674.50 L 795.10 674.00 L 793.50 673.00 L 792.20 671.70 L 791.30 670.10 L 790.80 668.20 L 790.80 666.20 L 791.30 664.40 L 792.30 662.80 L 793.60 661.50 L 795.20 660.50 L 797.10 660.00 L 799.10 660.10 L 800.90 660.60 L 802.50 661.50 L 803.80 662.90 L 804.70 664.50 L 805.20 666.40 Z"
                      fill="#b9539f"
                      fill-rule="nonzero"
                      group-id="1,16"
                      id="椭圆_6"
                      node-id="17"
                      stroke="none"
                      target-height="14.5"
                      target-width="14.400024"
                      target-x="790.8"
                      target-y="660"
                    />
                    <path
                      d="M 765.60 730.90 L 765.50 732.80 L 765.00 734.60 L 764.10 736.10 L 762.90 737.30 L 761.30 738.20 L 759.50 738.70 L 757.60 738.70 L 755.80 738.20 L 754.30 737.30 L 753.00 736.00 L 752.10 734.50 L 751.70 732.60 L 751.70 730.70 L 752.20 729.00 L 753.10 727.50 L 754.40 726.20 L 755.90 725.30 L 757.80 724.80 L 759.60 724.90 L 761.40 725.30 L 762.90 726.30 L 764.20 727.50 L 765.10 729.10 L 765.60 730.90 Z"
                      fill="#b9539f"
                      fill-rule="nonzero"
                      group-id="1,17"
                      id="椭圆_7"
                      node-id="18"
                      stroke="none"
                      target-height="13.900024"
                      target-width="13.899963"
                      target-x="751.7"
                      target-y="724.8"
                    />
                    <path
                      d="M 496.80 746.40 L 502.30 731.70 L 510.70 704.50 L 519.10 671.50 L 526.00 638.10 L 529.20 620.30 L 532.30 600.40 L 535.20 578.30 L 537.80 556.30 L 539.90 532.20 L 541.80 506.00 L 539.00 490.60 L 536.70 480.10 L 530.40 457.60 L 523.00 436.50 L 518.60 425.60 L 513.50 414.10 L 507.50 401.90 L 501.20 390.10 L 494.00 377.90 L 485.80 365.30 L 479.40 356.20 L 472.50 347.10 L 464.90 337.90 L 456.80 328.70 L 466.30 337.90 L 475.10 347.10 L 483.20 356.50 L 490.90 366.10 L 497.80 375.60 L 510.10 394.50 L 520.10 412.30 L 526.60 425.30 L 531.70 436.60 L 539.30 456.10 L 543.40 469.00 L 543.90 443.60 L 543.90 416.60 L 543.30 387.90 L 542.40 366.60 L 539.60 321.30 L 535.20 273.50 L 529.00 223.40 L 525.10 196.90 L 520.80 170.90 L 516.00 143.90 L 510.60 116.10 L 504.50 87.30 L 512.10 118.30 L 518.80 148.30 L 524.80 177.30 L 530.00 205.30 L 534.80 233.80 L 538.90 261.30 L 542.30 287.70 L 545.10 313.10 L 547.50 339.00 L 549.40 363.80 L 550.80 387.60 L 551.60 410.30 L 552.10 433.40 L 552.00 476.40 L 551.40 496.30 L 550.00 523.00 L 548.20 547.70 L 546.10 570.50 L 543.50 593.20 L 540.70 613.80 L 534.40 650.90 L 528.00 681.40 L 523.00 701.80 L 518.80 717.20 L 514.70 730.70 L 509.30 746.40 Z"
                      fill="#4d9786"
                      fill-rule="nonzero"
                      group-id="2,18"
                      id="联合_5"
                      node-id="20"
                      stroke="none"
                      target-height="659.10004"
                      target-width="95.29999"
                      target-x="456.8"
                      target-y="87.3"
                    />
                    <path
                      d="M 529.70 229.80 L 530.10 223.40 L 530.90 218.10 L 532.30 212.40 L 534.60 205.00 L 536.60 200.00 L 542.50 188.20 L 546.10 182.20 L 550.50 175.70 L 555.90 168.70 L 561.70 162.00 L 568.50 154.90 L 576.50 147.30 L 574.20 158.90 L 571.70 169.00 L 568.90 177.70 L 565.70 186.30 L 562.40 193.60 L 559.10 199.80 L 551.90 210.80 L 545.10 218.60 L 539.20 223.90 L 535.10 226.90 L 529.70 229.80 Z"
                      fill="#267a3e"
                      fill-rule="nonzero"
                      group-id="2,19"
                      id="路径_76"
                      node-id="21"
                      stroke="none"
                      target-height="82.5"
                      target-width="46.799988"
                      target-x="529.7"
                      target-y="147.3"
                    />
                    <path
                      d="M 546.20 323.70 L 541.10 319.90 L 537.10 316.40 L 533.00 312.10 L 528.10 306.10 L 525.00 301.70 L 518.30 290.40 L 515.20 284.10 L 512.20 276.80 L 509.30 268.40 L 506.80 259.90 L 504.50 250.30 L 502.60 239.50 L 511.10 247.80 L 518.10 255.40 L 524.00 262.40 L 529.40 269.90 L 533.70 276.60 L 537.10 282.70 L 542.40 294.70 L 545.30 304.70 L 546.50 312.50 L 546.80 317.60 L 546.20 323.70 Z"
                      fill="#267a3e"
                      fill-rule="nonzero"
                      group-id="2,20"
                      id="路径_77"
                      node-id="22"
                      stroke="none"
                      target-height="84.20001"
                      target-width="44.19998"
                      target-x="502.6"
                      target-y="239.5"
                    />
                    <path
                      d="M 526.00 430.90 L 520.50 431.80 L 510.80 432.00 L 499.60 430.80 L 488.60 428.20 L 476.70 424.10 L 469.80 421.00 L 463.10 417.70 L 455.90 413.50 L 448.20 408.50 L 458.40 408.20 L 467.40 408.50 L 475.30 409.10 L 483.10 410.10 L 489.90 411.40 L 495.60 412.90 L 506.10 416.60 L 515.60 421.60 L 519.50 424.40 L 522.70 427.10 L 526.00 430.90 Z"
                      fill="#267a3e"
                      fill-rule="nonzero"
                      group-id="2,21"
                      id="路径_81"
                      node-id="23"
                      stroke="none"
                      target-height="23.799988"
                      target-width="77.79999"
                      target-x="448.2"
                      target-y="408.2"
                    />
                    <path
                      d="M 506.60 391.00 L 503.70 386.30 L 499.60 377.50 L 496.40 366.70 L 494.40 355.60 L 493.60 343.00 L 493.70 335.50 L 494.20 328.00 L 495.20 319.80 L 496.80 310.70 L 501.00 320.00 L 504.30 328.40 L 506.80 335.80 L 508.90 343.50 L 510.40 350.20 L 511.30 356.10 L 511.90 367.20 L 511.00 377.90 L 510.00 382.50 L 508.80 386.50 L 506.60 391.00 Z"
                      fill="#267a3e"
                      fill-rule="nonzero"
                      group-id="2,22"
                      id="路径_82"
                      node-id="24"
                      stroke="none"
                      target-height="80.29999"
                      target-width="18.299988"
                      target-x="493.6"
                      target-y="310.7"
                    />
                    <path
                      d="M 545.80 445.20 L 550.30 438.20 L 554.50 432.80 L 561.80 425.00 L 572.20 415.80 L 578.40 411.00 L 585.80 406.00 L 593.40 401.30 L 602.20 396.70 L 612.30 392.00 L 628.20 385.80 L 647.30 380.10 L 638.90 390.20 L 630.90 398.90 L 623.50 406.30 L 615.80 413.40 L 608.60 419.40 L 602.00 424.40 L 595.10 429.10 L 583.10 435.90 L 577.30 438.60 L 567.60 442.20 L 560.90 443.90 L 555.80 444.90 L 551.30 445.30 L 545.80 445.20 Z"
                      fill="#267a3e"
                      fill-rule="nonzero"
                      group-id="2,23"
                      id="路径_78"
                      node-id="25"
                      stroke="none"
                      target-height="65.19998"
                      target-width="101.5"
                      target-x="545.8"
                      target-y="380.1"
                    />
                    <path
                      d="M 545.20 527.90 L 550.80 521.50 L 556.00 516.70 L 564.60 509.90 L 576.50 502.20 L 583.60 498.40 L 591.80 494.40 L 600.30 490.90 L 609.90 487.50 L 620.80 484.30 L 637.80 480.50 L 657.90 477.70 L 647.70 486.60 L 638.30 494.10 L 629.60 500.50 L 620.70 506.50 L 612.50 511.50 L 605.00 515.50 L 597.30 519.10 L 584.20 524.20 L 577.90 526.00 L 567.50 528.20 L 560.50 528.90 L 555.30 529.10 L 550.60 528.80 L 545.20 527.90 Z"
                      fill="#267a3e"
                      fill-rule="nonzero"
                      group-id="2,24"
                      id="路径_79"
                      node-id="26"
                      stroke="none"
                      target-height="51.399963"
                      target-width="112.70001"
                      target-x="545.2"
                      target-y="477.7"
                    />
                    <path
                      d="M 540.50 589.20 L 533.50 585.20 L 528.00 581.20 L 522.20 576.50 L 515.00 569.60 L 510.20 564.60 L 499.50 551.50 L 494.40 544.10 L 489.00 535.60 L 483.40 525.70 L 475.80 510.00 L 468.30 491.10 L 474.00 493.40 L 479.40 496.10 L 484.50 499.20 L 489.30 502.60 L 495.40 507.60 L 501.00 513.10 L 506.20 518.90 L 511.10 525.10 L 515.40 531.40 L 519.40 537.80 L 523.10 544.30 L 529.10 556.60 L 535.60 573.10 L 540.50 589.20 Z"
                      fill="#267a3e"
                      fill-rule="nonzero"
                      group-id="2,25"
                      id="路径_80"
                      node-id="27"
                      stroke="none"
                      target-height="98.100006"
                      target-width="72.20001"
                      target-x="468.3"
                      target-y="491.1"
                    />
                    <path
                      d="M 487.00 114.30 L 488.30 100.90 L 489.10 96.40 L 490.80 91.00 L 491.80 88.90 L 493.10 87.10 L 494.60 86.10 L 496.20 85.60 L 497.50 85.80 L 498.70 86.40 L 499.80 87.40 L 501.10 89.50 L 503.20 95.80 L 504.90 107.30 L 505.70 117.80 L 504.90 123.10 L 504.00 125.40 L 502.80 127.20 L 501.50 128.70 L 499.90 129.80 L 498.10 130.50 L 495.60 130.90 L 493.90 130.70 L 492.30 130.00 L 490.80 128.80 L 488.60 125.40 L 487.30 120.40 L 487.00 114.30 Z M 512.30 113.20 L 506.70 101.00 L 505.10 96.60 L 503.90 91.10 L 503.80 88.80 L 504.00 86.60 L 504.70 84.90 L 505.90 83.70 L 507.10 83.20 L 508.50 83.10 L 509.90 83.50 L 512.10 84.70 L 514.60 86.70 L 519.50 92.00 L 524.30 98.20 L 530.20 106.80 L 531.50 109.40 L 532.50 114.30 L 532.50 116.40 L 532.00 118.40 L 531.20 120.20 L 530.00 121.70 L 528.50 122.90 L 526.80 123.80 L 524.90 124.10 L 522.80 123.80 L 520.60 122.90 L 518.30 121.20 L 516.30 119.20 L 514.20 116.50 L 512.30 113.20 Z M 462.90 122.80 L 461.30 121.70 L 460.20 120.40 L 459.40 118.60 L 459.10 114.50 L 459.50 111.90 L 461.50 106.80 L 468.10 96.70 L 471.00 92.90 L 476.20 87.20 L 480.10 84.20 L 482.10 83.40 L 483.90 83.20 L 485.50 83.60 L 486.60 84.40 L 487.40 85.50 L 487.80 87.00 L 487.90 89.40 L 487.40 92.60 L 485.20 99.50 L 479.30 113.10 L 477.50 116.60 L 475.50 119.20 L 473.50 121.10 L 471.20 122.60 L 469.00 123.40 L 466.80 123.70 L 464.80 123.40 L 462.90 122.80 Z M 534.00 98.40 L 523.00 90.60 L 519.60 87.60 L 515.70 83.40 L 514.40 81.50 L 513.60 79.50 L 513.40 77.70 L 513.80 76.10 L 514.60 75.00 L 515.70 74.30 L 517.10 73.80 L 519.60 73.80 L 526.10 75.20 L 529.70 76.40 L 543.30 82.30 L 548.80 85.50 L 552.10 89.20 L 553.10 91.10 L 553.70 93.00 L 553.90 95.00 L 553.60 96.90 L 553.00 98.70 L 551.30 100.90 L 548.30 102.40 L 545.90 102.60 L 543.30 102.40 L 540.30 101.50 L 537.30 100.30 L 534.00 98.40 Z M 440.70 98.50 L 439.80 96.80 L 439.50 95.00 L 439.70 93.10 L 440.40 91.30 L 443.20 87.40 L 447.50 83.90 L 458.30 78.40 L 462.70 76.60 L 470.00 74.30 L 474.80 73.70 L 477.00 73.90 L 478.70 74.70 L 479.90 75.80 L 480.40 77.10 L 480.50 78.40 L 480.10 79.90 L 479.00 82.00 L 477.00 84.50 L 471.60 89.50 L 465.40 94.20 L 456.70 100.20 L 453.90 101.50 L 451.20 102.30 L 448.80 102.50 L 446.40 102.30 L 444.20 101.50 L 442.30 100.20 L 440.70 98.40 Z M 546.00 75.40 L 532.70 74.10 L 528.10 73.20 L 522.70 71.50 L 520.60 70.50 L 518.90 69.20 L 517.80 67.80 L 517.40 66.20 L 517.50 64.80 L 518.10 63.60 L 519.20 62.50 L 521.30 61.20 L 527.60 59.20 L 539.00 57.50 L 549.50 56.60 L 554.80 57.40 L 557.10 58.30 L 559.00 59.50 L 560.40 60.90 L 561.50 62.50 L 562.30 64.20 L 562.60 66.20 L 562.50 67.90 L 562.00 69.50 L 561.00 71.00 L 558.00 73.30 L 555.80 74.20 L 550.90 75.30 L 546.00 75.40 Z M 429.10 65.90 L 429.20 64.00 L 429.80 62.30 L 430.90 60.80 L 432.40 59.50 L 436.80 57.50 L 442.30 56.60 L 454.30 57.30 L 463.60 58.80 L 466.50 59.50 L 471.10 61.50 L 472.80 62.80 L 473.90 64.20 L 474.30 65.90 L 474.20 67.20 L 473.60 68.40 L 472.60 69.50 L 470.40 70.80 L 467.40 71.90 L 460.40 73.50 L 442.70 75.40 L 439.50 75.20 L 436.80 74.60 L 434.70 73.70 L 432.90 72.60 L 431.30 71.10 L 430.20 69.50 L 429.50 67.80 L 429.10 65.90 Z M 513.90 56.70 L 513.40 55.50 L 513.30 54.20 L 513.70 52.70 L 514.80 50.50 L 516.90 48.00 L 522.20 43.10 L 528.40 38.40 L 537.00 32.40 L 542.00 30.40 L 544.50 30.10 L 546.60 30.20 L 548.60 30.60 L 550.30 31.50 L 551.90 32.60 L 553.10 34.10 L 554.00 35.80 L 554.30 37.50 L 554.10 39.40 L 552.30 43.20 L 548.70 46.90 L 543.40 50.30 L 531.30 55.90 L 527.00 57.40 L 522.70 58.50 L 519.20 58.90 L 517.50 58.70 L 514.80 57.70 L 513.90 56.70 Z M 450.50 50.30 L 447.40 48.70 L 443.20 45.30 L 441.70 43.30 L 440.70 41.40 L 440.10 39.50 L 440.00 37.50 L 440.20 35.70 L 440.80 33.80 L 441.90 32.30 L 443.20 31.10 L 445.00 30.30 L 449.10 30.00 L 451.70 30.40 L 456.90 32.40 L 467.00 39.00 L 470.80 41.90 L 476.40 47.10 L 479.40 51.00 L 480.20 53.10 L 480.40 54.80 L 480.00 56.50 L 479.20 57.50 L 476.80 58.70 L 472.60 58.60 L 469.50 57.90 L 463.00 55.70 L 450.50 50.20 Z M 463.30 28.00 L 461.50 25.10 L 459.50 20.10 L 459.20 17.60 L 459.20 15.40 L 459.70 13.50 L 460.60 11.70 L 461.70 10.20 L 463.20 9.00 L 464.90 8.10 L 466.60 7.80 L 468.50 8.00 L 470.30 8.60 L 472.20 9.80 L 476.00 13.40 L 479.40 18.70 L 485.00 30.90 L 486.60 35.30 L 487.80 40.80 L 487.90 43.10 L 487.70 45.30 L 487.00 46.90 L 485.80 48.20 L 483.70 48.80 L 480.60 47.90 L 476.10 44.30 L 473.30 41.20 L 463.30 28.00 Z M 506.20 48.30 L 505.10 47.50 L 504.30 46.40 L 503.90 44.90 L 503.90 42.50 L 504.30 39.30 L 506.50 32.40 L 509.50 25.20 L 512.40 18.80 L 515.60 13.30 L 519.30 10.00 L 521.20 8.90 L 523.10 8.40 L 525.10 8.20 L 527.00 8.50 L 528.80 9.10 L 530.40 10.20 L 531.50 11.50 L 532.30 13.30 L 532.60 15.20 L 532.20 19.90 L 530.20 25.10 L 528.50 28.10 L 521.50 38.00 L 516.00 44.30 L 513.30 46.60 L 509.60 48.50 L 508.00 48.70 L 506.20 48.30 Z M 487.10 16.60 L 487.00 13.10 L 487.80 7.80 L 488.70 5.50 L 489.90 3.70 L 491.20 2.20 L 492.80 1.10 L 494.60 0.40 L 496.50 0.00 L 498.40 0.10 L 500.10 0.70 L 501.60 1.80 L 502.90 3.30 L 504.90 7.70 L 505.70 13.20 L 505.70 16.60 L 504.40 30.00 L 503.60 34.50 L 501.90 39.90 L 500.90 42.00 L 499.60 43.70 L 498.10 44.80 L 496.50 45.30 L 494.90 45.00 L 493.80 44.40 L 492.70 43.30 L 491.50 41.10 L 490.30 38.10 L 488.80 31.10 L 487.10 16.60 Z"
                      fill="#dea59e"
                      fill-rule="nonzero"
                      group-id="2,26"
                      id="联合_6"
                      node-id="28"
                      stroke="none"
                      target-height="130.9"
                      target-width="133.49997"
                      target-x="429.1"
                      target-y="0"
                    />
                    <path
                      d="M 431.00 364.30 L 432.30 350.90 L 433.10 346.40 L 434.80 341.00 L 435.80 338.90 L 437.10 337.10 L 438.60 336.10 L 440.20 335.60 L 441.50 335.80 L 442.70 336.40 L 443.80 337.40 L 445.10 339.50 L 447.20 345.80 L 448.90 357.30 L 449.70 367.80 L 448.90 373.10 L 448.00 375.40 L 446.80 377.20 L 445.50 378.70 L 443.90 379.80 L 442.10 380.50 L 439.60 380.90 L 437.90 380.70 L 436.30 380.00 L 434.80 378.80 L 432.60 375.40 L 431.30 370.40 L 431.00 364.30 Z M 456.30 363.20 L 450.70 351.00 L 449.10 346.60 L 447.90 341.10 L 447.80 338.80 L 448.00 336.60 L 448.70 334.90 L 449.90 333.70 L 451.10 333.20 L 452.50 333.10 L 453.90 333.50 L 456.10 334.70 L 458.60 336.70 L 463.50 342.00 L 468.30 348.20 L 474.20 356.80 L 475.50 359.40 L 476.50 364.30 L 476.50 366.40 L 476.00 368.40 L 475.20 370.20 L 474.00 371.70 L 472.50 372.90 L 470.80 373.80 L 468.90 374.10 L 466.80 373.80 L 464.60 372.90 L 462.30 371.20 L 460.30 369.20 L 458.20 366.50 L 456.30 363.20 Z M 406.90 372.80 L 405.30 371.70 L 404.20 370.40 L 403.40 368.60 L 403.10 364.50 L 403.50 361.90 L 405.50 356.80 L 412.10 346.70 L 415.00 342.90 L 420.20 337.20 L 424.10 334.20 L 426.10 333.40 L 427.90 333.20 L 429.50 333.60 L 430.60 334.40 L 431.40 335.50 L 431.80 337.00 L 431.90 339.40 L 431.40 342.60 L 429.20 349.50 L 423.30 363.10 L 421.50 366.60 L 419.50 369.20 L 417.50 371.10 L 415.20 372.60 L 413.00 373.40 L 410.80 373.70 L 408.80 373.40 L 406.90 372.80 Z M 478.00 348.40 L 467.00 340.60 L 463.60 337.60 L 459.70 333.40 L 458.40 331.50 L 457.60 329.50 L 457.40 327.70 L 457.80 326.10 L 458.60 325.00 L 459.70 324.30 L 461.10 323.80 L 463.60 323.80 L 470.10 325.20 L 473.70 326.40 L 487.30 332.30 L 492.80 335.50 L 494.60 337.20 L 496.10 339.20 L 497.10 341.10 L 497.70 343.00 L 497.90 345.00 L 497.60 346.90 L 497.00 348.70 L 495.30 350.90 L 492.30 352.40 L 489.90 352.60 L 487.30 352.40 L 484.30 351.50 L 481.30 350.30 L 478.00 348.40 Z M 384.70 348.40 L 383.80 346.80 L 383.50 345.00 L 383.70 343.10 L 384.40 341.30 L 387.20 337.40 L 391.50 333.90 L 402.30 328.40 L 406.70 326.60 L 414.00 324.30 L 418.80 323.70 L 421.00 323.90 L 422.70 324.70 L 423.90 325.80 L 424.40 327.10 L 424.50 328.40 L 424.10 329.90 L 423.00 332.00 L 421.00 334.50 L 415.60 339.50 L 409.40 344.20 L 400.70 350.20 L 397.90 351.50 L 395.20 352.30 L 392.80 352.50 L 390.40 352.30 L 388.20 351.50 L 386.30 350.20 L 384.70 348.40 Z M 490.00 325.40 L 481.40 324.70 L 472.10 323.20 L 466.70 321.50 L 464.60 320.50 L 462.90 319.20 L 461.80 317.80 L 461.40 316.20 L 461.50 314.80 L 462.10 313.60 L 463.20 312.50 L 465.30 311.20 L 468.30 310.10 L 475.30 308.50 L 483.00 307.50 L 490.00 306.80 L 496.40 306.80 L 498.80 307.40 L 501.10 308.30 L 503.00 309.50 L 504.40 310.90 L 505.50 312.50 L 506.30 314.20 L 506.60 316.20 L 506.50 317.90 L 506.00 319.50 L 505.00 321.00 L 503.70 322.20 L 499.80 324.20 L 494.90 325.30 L 490.00 325.40 Z M 373.10 315.90 L 373.20 314.00 L 373.80 312.30 L 374.90 310.80 L 376.40 309.50 L 380.80 307.50 L 386.30 306.60 L 398.30 307.30 L 407.60 308.80 L 410.50 309.50 L 415.10 311.50 L 416.80 312.80 L 417.90 314.20 L 418.30 315.90 L 418.20 317.20 L 417.60 318.40 L 416.60 319.50 L 414.40 320.80 L 411.40 321.90 L 404.40 323.50 L 386.70 325.40 L 383.50 325.20 L 380.80 324.60 L 378.70 323.70 L 376.90 322.60 L 375.30 321.10 L 374.20 319.50 L 373.50 317.80 L 373.10 315.90 Z M 457.90 306.70 L 457.40 305.50 L 457.30 304.20 L 457.70 302.70 L 458.80 300.50 L 460.90 298.00 L 466.20 293.10 L 472.40 288.40 L 481.00 282.40 L 486.00 280.40 L 488.50 280.10 L 490.60 280.20 L 492.60 280.60 L 494.30 281.50 L 495.90 282.60 L 497.10 284.10 L 498.00 285.80 L 498.30 287.50 L 498.10 289.40 L 496.30 293.20 L 492.70 296.90 L 487.40 300.30 L 475.30 305.90 L 471.00 307.40 L 466.70 308.50 L 463.20 308.90 L 461.50 308.70 L 458.80 307.70 L 457.90 306.70 Z M 394.50 300.20 L 391.40 298.70 L 387.20 295.30 L 385.70 293.30 L 384.70 291.40 L 384.10 289.50 L 384.00 287.50 L 384.20 285.70 L 384.80 283.80 L 385.90 282.30 L 387.20 281.10 L 389.00 280.30 L 393.10 280.00 L 395.70 280.40 L 400.90 282.40 L 411.00 289.00 L 414.80 291.90 L 420.40 297.10 L 423.40 301.00 L 424.20 303.10 L 424.40 304.80 L 424.00 306.50 L 423.20 307.50 L 420.80 308.70 L 416.60 308.60 L 413.50 307.90 L 407.00 305.70 L 394.50 300.20 Z M 407.30 278.00 L 405.50 275.10 L 403.50 270.10 L 403.20 267.60 L 403.20 265.40 L 403.70 263.50 L 404.60 261.70 L 405.70 260.20 L 407.20 259.00 L 408.90 258.10 L 410.60 257.80 L 412.50 258.00 L 414.30 258.60 L 416.20 259.80 L 420.00 263.40 L 423.40 268.70 L 429.00 280.90 L 430.60 285.30 L 431.80 290.80 L 431.90 293.10 L 431.70 295.30 L 431.00 296.90 L 429.80 298.20 L 427.70 298.80 L 424.60 297.90 L 420.10 294.30 L 417.30 291.20 L 407.30 278.00 Z M 450.20 298.30 L 449.10 297.50 L 448.30 296.40 L 447.90 294.90 L 447.90 292.50 L 448.30 289.30 L 450.50 282.40 L 453.50 275.20 L 456.40 268.80 L 459.60 263.30 L 463.30 260.00 L 465.20 258.90 L 467.10 258.40 L 469.10 258.20 L 471.00 258.50 L 472.80 259.10 L 474.40 260.20 L 475.50 261.50 L 476.30 263.30 L 476.60 265.20 L 476.20 269.90 L 474.20 275.10 L 472.50 278.10 L 465.50 288.00 L 460.00 294.30 L 457.30 296.60 L 453.60 298.50 L 452.00 298.70 L 450.20 298.30 Z M 431.10 266.60 L 431.00 263.10 L 431.80 257.80 L 432.70 255.50 L 433.90 253.70 L 435.20 252.20 L 436.80 251.10 L 438.60 250.40 L 440.50 250.00 L 442.40 250.10 L 444.10 250.70 L 445.60 251.80 L 446.90 253.30 L 448.90 257.70 L 449.70 263.20 L 449.70 266.60 L 448.50 280.00 L 447.60 284.50 L 445.90 289.90 L 444.90 292.00 L 443.60 293.70 L 442.10 294.80 L 440.50 295.30 L 438.90 295.00 L 437.80 294.40 L 436.70 293.30 L 435.50 291.10 L 434.30 288.10 L 432.80 281.10 L 431.10 266.60 Z"
                      fill="#dea59e"
                      fill-rule="nonzero"
                      group-id="2,27"
                      id="联合_7"
                      node-id="29"
                      stroke="none"
                      target-height="130.9"
                      target-width="133.5"
                      target-x="373.1"
                      target-y="250"
                    />
                    <path
                      d="M 523.00 66.00 L 522.80 69.60 L 522.10 72.90 L 521.00 76.10 L 519.40 79.10 L 517.60 81.90 L 515.40 84.40 L 512.90 86.60 L 510.10 88.40 L 507.10 90.00 L 503.90 91.10 L 500.60 91.80 L 497.00 92.00 L 493.40 91.80 L 490.10 91.10 L 486.90 90.00 L 483.90 88.40 L 481.10 86.60 L 478.60 84.40 L 476.40 81.90 L 474.60 79.10 L 473.00 76.10 L 471.90 72.90 L 471.20 69.60 L 471.00 66.00 L 471.20 62.40 L 471.90 59.10 L 473.00 55.90 L 474.60 52.90 L 476.40 50.10 L 478.60 47.60 L 481.10 45.40 L 483.90 43.60 L 486.90 42.00 L 490.10 40.90 L 493.40 40.20 L 497.00 40.00 L 500.60 40.20 L 503.90 40.90 L 507.10 42.00 L 510.10 43.60 L 512.90 45.40 L 515.40 47.60 L 517.60 50.10 L 519.40 52.90 L 521.00 55.90 L 522.10 59.10 L 522.80 62.40 L 523.00 66.00 Z"
                      fill="#f5b332"
                      fill-rule="nonzero"
                      group-id="2,28"
                      id="椭圆_1"
                      node-id="30"
                      stroke="none"
                      target-height="52"
                      target-width="52"
                      target-x="471"
                      target-y="40"
                    />
                    <path
                      d="M 467.00 316.00 L 466.80 319.60 L 466.10 322.90 L 465.00 326.10 L 463.40 329.10 L 461.60 331.90 L 459.40 334.40 L 456.90 336.60 L 454.10 338.40 L 451.10 340.00 L 447.90 341.10 L 444.60 341.80 L 441.00 342.00 L 437.40 341.80 L 434.10 341.10 L 430.90 340.00 L 427.90 338.40 L 425.10 336.60 L 422.60 334.40 L 420.40 331.90 L 418.60 329.10 L 417.00 326.10 L 415.90 322.90 L 415.20 319.60 L 415.00 316.00 L 415.20 312.40 L 415.90 309.10 L 417.00 305.90 L 418.60 302.90 L 420.40 300.10 L 422.60 297.60 L 425.10 295.40 L 427.90 293.60 L 430.90 292.00 L 434.10 290.90 L 437.40 290.20 L 441.00 290.00 L 444.60 290.20 L 447.90 290.90 L 451.10 292.00 L 454.10 293.60 L 456.90 295.40 L 459.40 297.60 L 461.60 300.10 L 463.40 302.90 L 465.00 305.90 L 466.10 309.10 L 466.80 312.40 L 467.00 316.00 Z"
                      fill="#f5b332"
                      fill-rule="nonzero"
                      group-id="2,29"
                      id="椭圆_2"
                      node-id="31"
                      stroke="none"
                      target-height="52"
                      target-width="52"
                      target-x="415"
                      target-y="290"
                    />
                    <path
                      d="M 89.90 698.60 L 94.20 710.80 L 98.50 720.90 L 106.30 736.40 L 117.80 756.00 L 125.00 766.90 L 133.50 779.00 L 142.50 790.80 L 153.00 803.50 L 165.10 817.30 L 174.40 827.20 L 184.60 837.50 L 195.90 848.30 L 208.30 859.60 L 220.60 870.20 L 234.10 881.20 L 248.80 892.50 L 264.70 904.20 L 280.60 915.20 L 297.70 926.40 L 316.20 937.80 L 336.10 949.50 L 351.80 958.20 L 386.00 975.90 L 424.20 993.80"
                      fill="none"
                      group-id="3,30"
                      id="路径_107-2"
                      node-id="33"
                      stroke="#368679"
                      stroke-linecap="round"
                      stroke-width="6"
                      target-height="295.2"
                      target-width="334.30002"
                      target-x="89.9"
                      target-y="698.6"
                    />
                    <path
                      d="M 185.20 716.50 L 184.90 733.80 L 185.40 762.90 L 186.90 786.10 L 189.60 809.80 L 191.50 821.00 L 194.80 835.00 L 196.80 841.10 L 199.10 847.10 L 201.60 852.10 L 204.20 856.30"
                      fill="none"
                      group-id="3,31"
                      id="路径_108-2"
                      node-id="34"
                      stroke="#368679"
                      stroke-linecap="round"
                      stroke-width="6"
                      target-height="139.79999"
                      target-width="19.300003"
                      target-x="184.9"
                      target-y="716.5"
                    />
                    <path
                      d="M 37.10 773.30 L 52.20 772.40 L 68.00 772.00 L 86.50 772.50 L 96.10 773.10 L 111.90 775.20 L 123.40 777.80 L 128.80 779.60 L 133.50 781.50 L 137.60 783.70"
                      fill="none"
                      group-id="3,32"
                      id="路径_109-2"
                      node-id="35"
                      stroke="#368679"
                      stroke-linecap="round"
                      stroke-width="6"
                      target-height="11.700012"
                      target-width="100.50001"
                      target-x="37.1"
                      target-y="772"
                    />
                    <path
                      d="M 76.50 877.20 L 105.00 876.70 L 129.40 877.40 L 158.30 879.70 L 184.80 883.20 L 206.80 887.40 L 228.70 892.80 L 239.60 896.20 L 250.40 899.90 L 260.90 904.10 L 271.10 908.70"
                      fill="none"
                      group-id="3,33"
                      id="路径_110-2"
                      node-id="36"
                      stroke="#368679"
                      stroke-linecap="round"
                      stroke-width="6"
                      target-height="32"
                      target-width="194.6"
                      target-x="76.5"
                      target-y="876.7"
                    />
                    <path
                      d="M 328.90 943.10 L 323.30 927.90 L 314.80 901.50 L 308.50 879.50 L 302.90 856.00 L 300.70 844.20 L 298.90 832.50 L 297.80 821.50 L 297.40 814.20 L 297.90 801.20"
                      fill="none"
                      group-id="3,34"
                      id="路径_111-2"
                      node-id="37"
                      stroke="#368679"
                      stroke-linecap="round"
                      stroke-width="6"
                      target-height="141.89996"
                      target-width="31.5"
                      target-x="297.4"
                      target-y="801.2"
                    />
                    <path
                      d="M 156.80 980.70 L 179.90 976.60 L 191.50 974.90 L 221.90 971.70 L 252.50 970.00 L 279.80 969.70 L 293.90 970.10 L 323.70 972.00 L 338.90 973.70 L 354.30 975.90 L 370.00 978.60 L 381.70 981.10 L 405.30 987.10 L 417.10 990.70"
                      fill="none"
                      group-id="3,35"
                      id="路径_112-2"
                      node-id="38"
                      stroke="#368679"
                      stroke-linecap="round"
                      stroke-width="6"
                      target-height="21"
                      target-width="260.3"
                      target-x="156.8"
                      target-y="969.7"
                    />
                    <path
                      d="M 199.00 715.00 L 198.30 718.80 L 196.40 722.10 L 193.60 724.50 L 191.80 725.30 L 188.00 726.00 L 184.20 725.30 L 180.90 723.40 L 178.50 720.60 L 177.20 717.00 L 177.20 713.00 L 177.70 711.20 L 179.60 707.90 L 182.40 705.50 L 184.20 704.70 L 188.00 704.00 L 191.80 704.70 L 195.10 706.60 L 197.50 709.40 L 198.30 711.20 L 199.00 715.00 Z"
                      fill="#b9539f"
                      fill-rule="nonzero"
                      group-id="3,36"
                      id="椭圆_3-2"
                      node-id="39"
                      stroke="none"
                      target-height="22"
                      target-width="21.800003"
                      target-x="177.2"
                      target-y="704"
                    />
                    <path
                      d="M 100.00 693.00 L 99.30 696.80 L 97.40 700.10 L 94.60 702.50 L 92.80 703.30 L 89.00 704.00 L 85.20 703.30 L 81.90 701.40 L 79.50 698.60 L 78.20 695.00 L 78.20 691.00 L 78.70 689.20 L 80.60 685.90 L 83.40 683.50 L 85.20 682.70 L 89.00 682.00 L 92.80 682.70 L 94.60 683.50 L 97.40 685.90 L 99.30 689.20 L 100.00 693.00 Z"
                      fill="#b9539f"
                      fill-rule="nonzero"
                      group-id="3,37"
                      id="椭圆_4-2"
                      node-id="40"
                      stroke="none"
                      target-height="22"
                      target-width="21.800003"
                      target-x="78.2"
                      target-y="682"
                    />
                    <path
                      d="M 42.00 775.00 L 41.40 778.50 L 39.60 781.50 L 37.00 783.60 L 35.50 784.40 L 32.00 785.00 L 28.50 784.40 L 25.50 782.60 L 23.40 780.00 L 22.20 776.80 L 22.20 773.20 L 22.60 771.50 L 24.40 768.50 L 27.00 766.40 L 28.50 765.60 L 32.00 765.00 L 35.50 765.60 L 37.00 766.40 L 39.60 768.50 L 41.40 771.50 L 42.00 775.00 Z"
                      fill="#b9539f"
                      fill-rule="nonzero"
                      group-id="3,38"
                      id="椭圆_5-2"
                      node-id="41"
                      stroke="none"
                      target-height="20"
                      target-width="19.8"
                      target-x="22.2"
                      target-y="765"
                    />
                    <path
                      d="M 81.00 881.50 L 80.20 885.90 L 78.10 889.60 L 74.80 892.30 L 72.90 893.20 L 68.50 894.00 L 64.10 893.20 L 60.40 891.10 L 57.70 887.80 L 56.20 883.80 L 56.00 881.50 L 56.20 879.20 L 56.80 877.10 L 58.90 873.40 L 62.20 870.70 L 64.10 869.80 L 68.50 869.00 L 72.90 869.80 L 76.60 871.90 L 79.30 875.20 L 80.20 877.10 L 81.00 881.50 Z"
                      fill="#b9539f"
                      fill-rule="nonzero"
                      group-id="3,39"
                      id="椭圆_6-2"
                      node-id="42"
                      stroke="none"
                      target-height="25"
                      target-width="25"
                      target-x="56"
                      target-y="869"
                    />
                    <path
                      d="M 161.00 983.00 L 160.20 987.20 L 158.20 990.70 L 155.10 993.40 L 153.20 994.20 L 149.00 995.00 L 144.80 994.20 L 141.30 992.20 L 138.60 989.10 L 137.80 987.20 L 137.00 983.00 L 137.80 978.80 L 139.80 975.30 L 142.90 972.60 L 144.80 971.80 L 149.00 971.00 L 153.20 971.80 L 156.70 973.80 L 159.40 976.90 L 160.20 978.80 L 161.00 983.00 Z"
                      fill="#b9539f"
                      fill-rule="nonzero"
                      group-id="3,40"
                      id="椭圆_7-2"
                      node-id="43"
                      stroke="none"
                      target-height="24"
                      target-width="24"
                      target-x="137"
                      target-y="971"
                    />
                    <path
                      d="M 501.80 703.00 L 530.40 681.50 L 555.80 661.00 L 572.10 646.60 L 579.20 639.90 L 585.60 633.10 L 590.40 627.50 L 597.60 617.60 L 604.30 607.80 L 608.50 601.00 L 615.70 587.40 L 618.70 580.30 L 621.20 573.00 L 623.30 565.60 L 624.80 558.00 L 625.80 550.10 L 626.10 541.70 L 628.20 549.30 L 630.00 559.90 L 631.50 571.60 L 633.50 593.40 L 640.80 588.60 L 652.10 579.80 L 659.00 573.70 L 668.10 564.40 L 677.40 553.10 L 681.80 546.80 L 686.00 540.00 L 689.70 533.00 L 693.00 525.50 L 695.90 517.40 L 697.60 511.30 L 699.00 504.90 L 699.90 498.20 L 700.50 491.20 L 703.00 496.00 L 706.80 508.10 L 709.10 518.20 L 711.10 529.00 L 713.10 541.70 L 714.60 554.90 L 715.80 569.30 L 716.50 584.10 L 716.70 599.30 L 716.40 609.40 L 714.90 629.60 L 713.50 639.50 L 711.80 649.10 L 707.80 665.20 L 705.60 671.70 L 700.50 683.70 L 701.50 683.80 L 702.90 683.00 L 707.80 679.10 L 721.30 666.20 L 733.90 653.20 L 727.50 663.90 L 716.70 680.50 L 707.90 692.60 L 703.40 698.10 L 698.70 703.20 L 694.40 707.40 L 688.50 711.50 L 684.40 713.40 L 682.00 715.20 L 678.90 718.30 L 674.30 723.50 L 662.80 738.70 L 649.60 758.00 L 628.70 791.00 L 603.20 833.00 L 584.70 864.80 L 470.00 906.80 L 460.90 817.60 Z"
                      fill="#74a855"
                      fill-rule="nonzero"
                      group-id="4,41"
                      id="路径_113"
                      node-id="45"
                      stroke="none"
                      target-height="415.59998"
                      target-width="273.00003"
                      target-x="460.9"
                      target-y="491.2"
                    />
                    <path
                      d="M 515.90 777.90 L 525.80 764.60 L 535.70 752.30 L 547.90 738.20 L 561.60 724.00 L 568.80 717.20 L 575.90 711.00 L 576.50 704.90 L 579.40 694.60 L 581.80 688.10 L 585.60 679.60 L 590.30 670.50 L 596.70 659.20 L 604.10 647.30 L 613.70 632.90 L 605.40 649.10 L 599.30 661.80 L 594.20 673.60 L 590.90 682.50 L 588.30 690.50 L 586.90 696.10 L 585.70 703.70 L 608.60 687.30 L 619.60 678.80 L 629.80 670.40 L 639.30 661.90 L 647.50 654.00 L 652.50 648.50 L 660.10 638.90 L 665.00 631.50 L 675.90 613.40 L 681.30 603.30 L 686.50 593.00 L 691.20 582.50 L 694.00 575.40 L 698.30 561.90 L 697.30 567.00 L 695.30 574.20 L 692.70 581.90 L 685.30 600.00 L 680.80 609.70 L 670.60 628.90 L 665.10 638.00 L 655.60 651.50 L 648.30 659.80 L 641.80 666.10 L 623.80 682.00 L 611.50 691.80 L 581.50 713.80 L 574.00 719.60 L 566.50 726.20 L 552.00 740.70 L 539.00 755.40 L 549.60 753.40 L 566.30 749.00 L 576.10 745.70 L 587.30 741.30 L 602.70 734.10 L 611.00 729.60 L 619.10 724.70 L 627.30 719.20 L 635.70 713.00 L 643.70 706.40 L 651.70 699.00 L 659.70 690.70 L 653.30 698.70 L 646.60 706.00 L 639.70 712.70 L 632.40 719.00 L 625.00 724.70 L 617.50 729.90 L 609.80 734.80 L 594.80 743.00 L 583.60 748.20 L 573.30 752.40 L 554.50 758.80 L 540.20 762.50 L 531.90 764.20 L 524.80 773.40 L 516.80 784.70 L 516.20 783.60 L 515.90 777.90 Z"
                      fill="#106757"
                      fill-rule="nonzero"
                      group-id="4,42"
                      id="联合_8"
                      node-id="46"
                      stroke="none"
                      target-height="222.79999"
                      target-width="182.39996"
                      target-x="515.9"
                      target-y="561.9"
                    />
                    <path
                      d="M 278.70 530.90 L 265.80 446.80 L 259.50 399.00 L 256.90 372.30 L 256.90 363.90 L 257.30 362.70 L 257.70 362.30 L 260.00 363.70 L 263.60 366.80 L 276.70 379.30 L 318.30 421.50 L 369.10 474.40 L 450.10 559.90 L 448.80 553.40 L 446.80 547.70 L 442.70 538.80 L 439.40 532.70 L 431.30 520.10 L 425.40 512.20 L 419.30 504.50 L 411.80 495.90 L 402.80 486.20 L 393.40 476.90 L 382.30 466.60 L 369.30 455.10 L 356.00 444.10 L 340.60 432.10 L 323.00 419.10 L 348.50 430.70 L 358.00 435.40 L 379.60 447.10 L 391.10 454.00 L 406.10 464.20 L 420.60 475.70 L 427.30 481.90 L 433.70 488.40 L 438.80 494.20 L 444.20 501.10 L 450.00 509.10 L 461.10 526.30 L 466.80 536.30 L 477.70 557.20 L 488.20 580.30 L 493.10 592.30 L 502.30 617.40 L 506.40 630.30 L 513.70 656.50 L 516.70 669.70 L 519.30 683.00 L 521.40 696.30 L 522.90 709.30 L 523.90 722.30 L 525.00 745.10 L 525.50 766.50 L 525.50 786.60 L 525.20 805.30 L 524.30 824.50 L 523.10 842.30 L 521.60 858.70 L 519.80 873.90 L 517.60 889.40 L 515.10 903.50 L 512.50 916.30 L 509.70 927.80 L 507.10 937.00 L 504.10 945.60 L 500.70 953.70 L 497.00 961.60 L 493.00 968.90 L 489.00 975.60 L 480.30 988.10 L 469.40 1000.90 L 463.30 1007.00 L 457.30 1012.40 L 452.40 1016.30 L 442.00 1010.90 L 431.30 1004.70 L 420.20 997.90 L 409.40 990.70 L 398.30 982.60 L 387.10 973.50 L 379.00 966.50 L 370.80 958.80 L 362.60 950.50 L 354.30 941.40 L 346.60 932.30 L 338.80 922.30 L 331.00 911.50 L 323.30 899.90 L 316.10 888.20 L 309.00 875.50 L 302.00 861.90 L 295.10 847.10 L 289.80 834.70 L 280.50 810.20 L 276.50 798.10 L 271.50 781.70 L 267.20 765.70 L 263.50 749.90 L 260.20 734.10 L 257.50 718.70 L 253.30 688.90 L 250.50 661.10 L 249.20 640.90 L 248.10 605.20 L 248.20 568.10 L 249.50 528.90 L 251.70 495.80 L 253.00 482.50 L 256.00 461.10 L 257.40 469.60 L 260.70 481.40 L 269.90 508.10 L 278.70 530.90 Z"
                      fill="#97c676"
                      fill-rule="nonzero"
                      group-id="5,43"
                      id="路径_117"
                      node-id="48"
                      stroke="none"
                      target-height="654"
                      target-width="277.4"
                      target-x="248.1"
                      target-y="362.3"
                    />
                    <path
                      d="M 436.80 948.20 L 429.20 942.60 L 416.80 932.20 L 400.80 917.00 L 392.60 916.00 L 387.00 914.80 L 379.90 912.70 L 369.90 908.80 L 358.70 902.90 L 353.00 899.20 L 347.00 894.60 L 341.30 889.80 L 335.50 884.00 L 329.70 877.30 L 321.70 866.30 L 317.80 859.80 L 310.40 845.60 L 307.10 837.80 L 304.00 829.10 L 301.00 819.70 L 309.50 837.60 L 318.00 852.10 L 322.70 859.00 L 331.80 870.60 L 336.10 875.40 L 342.40 881.70 L 348.40 886.90 L 354.00 891.20 L 365.20 898.30 L 370.10 900.80 L 377.40 903.90 L 383.20 905.80 L 392.00 907.70 L 383.70 898.20 L 375.80 888.50 L 368.20 878.50 L 361.10 868.20 L 354.30 857.70 L 347.90 846.90 L 341.90 836.00 L 336.30 824.70 L 331.10 813.30 L 326.40 801.80 L 322.00 790.00 L 318.10 778.00 L 324.20 792.30 L 330.70 806.30 L 337.70 820.20 L 345.20 833.70 L 353.20 847.00 L 361.60 860.00 L 364.80 854.00 L 366.80 849.50 L 369.10 843.20 L 371.10 836.30 L 372.90 827.80 L 374.50 815.30 L 374.80 800.70 L 374.30 792.70 L 373.30 783.90 L 371.80 775.30 L 369.70 765.90 L 366.80 755.80 L 370.10 763.00 L 372.90 770.00 L 375.10 776.70 L 376.90 783.20 L 378.70 792.20 L 379.80 800.60 L 380.20 808.50 L 380.10 816.50 L 379.70 823.90 L 377.60 837.50 L 374.80 848.70 L 372.40 856.10 L 370.30 861.50 L 367.20 868.00 L 375.10 878.60 L 382.50 887.90 L 389.50 896.00 L 403.40 910.70 L 418.20 924.10 L 425.00 929.60 L 435.10 936.80 L 429.90 903.30 L 424.20 869.90 L 418.10 836.60 L 411.50 803.30 L 404.30 770.20 L 396.70 737.20 L 388.70 704.30 L 381.20 703.40 L 376.80 702.40 L 367.70 699.40 L 362.50 697.10 L 353.80 697.50 L 348.00 697.40 L 340.90 696.80 L 330.80 695.00 L 319.60 691.90 L 313.90 689.60 L 308.00 686.80 L 302.30 683.60 L 296.60 679.80 L 290.80 675.20 L 282.90 667.30 L 279.00 662.70 L 275.10 657.40 L 271.70 652.10 L 268.40 646.20 L 265.30 639.60 L 262.30 632.30 L 265.60 638.80 L 269.10 644.70 L 272.80 650.20 L 276.70 655.20 L 281.00 660.00 L 289.80 668.50 L 294.40 672.10 L 300.90 676.50 L 307.30 680.30 L 313.80 683.40 L 320.50 686.00 L 327.10 688.10 L 333.40 689.50 L 339.90 690.50 L 346.00 690.90 L 351.80 690.90 L 342.20 683.70 L 331.50 673.80 L 321.20 662.20 L 310.00 647.20 L 308.50 646.20 L 307.90 644.00 L 302.30 635.00 L 296.40 624.70 L 290.30 613.10 L 284.60 601.40 L 278.80 588.30 L 272.90 573.60 L 267.50 558.80 L 261.90 542.40 L 256.40 524.40 L 262.10 541.50 L 267.90 557.00 L 273.60 571.00 L 279.80 584.90 L 285.80 597.30 L 291.70 608.40 L 298.00 619.40 L 304.10 629.10 L 310.00 637.60 L 311.80 633.30 L 313.50 627.50 L 315.20 618.20 L 316.30 605.50 L 316.30 588.50 L 315.60 573.90 L 314.00 555.10 L 311.60 534.70 L 308.00 509.30 L 312.20 521.70 L 315.60 533.40 L 318.20 544.40 L 320.30 555.60 L 321.70 565.90 L 322.70 575.60 L 323.30 594.10 L 323.10 602.00 L 322.20 613.60 L 321.00 623.00 L 319.40 631.60 L 315.80 645.40 L 322.70 653.80 L 329.20 661.00 L 335.30 667.10 L 341.70 672.90 L 353.10 681.70 L 358.70 685.30 L 368.20 690.50 L 374.70 693.40 L 379.70 695.10 L 386.80 696.90 L 378.10 664.20 L 368.50 630.40 L 354.60 585.00 L 347.00 561.90 L 330.80 515.70 L 322.10 492.50 L 313.00 469.40 L 303.40 446.40 L 293.50 423.50 L 302.80 441.90 L 311.90 461.20 L 320.80 481.30 L 329.20 501.50 L 337.40 522.40 L 345.30 543.80 L 360.10 587.00 L 367.10 609.00 L 368.30 594.60 L 368.60 585.20 L 368.40 573.50 L 367.80 561.10 L 366.40 546.60 L 363.30 526.10 L 361.00 514.60 L 358.40 503.30 L 355.10 491.30 L 351.10 478.50 L 359.50 497.10 L 365.70 514.40 L 369.00 526.00 L 371.60 536.80 L 373.40 547.00 L 374.80 557.40 L 375.70 566.80 L 376.20 584.10 L 375.60 598.40 L 374.50 608.00 L 373.40 614.90 L 371.50 623.60 L 379.50 651.10 L 387.10 678.30 L 400.80 732.20 L 412.90 784.20 L 423.20 833.20 L 430.50 820.90 L 435.30 811.70 L 445.10 790.20 L 453.50 768.00 L 457.40 756.00 L 461.30 742.60 L 465.10 727.60 L 460.90 724.70 L 458.00 722.00 L 454.30 717.50 L 449.60 709.70 L 446.90 704.20 L 444.60 698.60 L 442.40 691.60 L 440.10 683.20 L 438.30 674.70 L 436.70 664.60 L 435.30 652.70 L 434.40 640.80 L 434.00 627.00 L 434.00 611.00 L 435.70 626.40 L 439.40 651.00 L 443.70 671.70 L 448.10 687.40 L 452.30 698.70 L 456.70 707.40 L 461.50 714.00 L 463.70 716.10 L 467.20 718.30 L 470.50 701.20 L 473.20 684.10 L 475.30 666.90 L 476.90 649.70 L 477.90 632.40 L 478.30 615.10 L 478.80 633.10 L 478.80 649.90 L 478.20 665.60 L 477.20 681.40 L 475.80 696.00 L 474.00 709.60 L 469.50 735.70 L 464.00 758.60 L 458.00 778.50 L 460.80 776.90 L 468.30 771.40 L 475.90 763.80 L 479.70 759.30 L 488.60 746.80 L 492.90 739.60 L 497.40 731.10 L 502.20 720.90 L 499.20 730.50 L 496.10 739.00 L 492.80 746.30 L 489.10 753.50 L 485.50 759.70 L 477.90 770.10 L 470.70 777.80 L 465.30 782.50 L 460.90 785.80 L 453.90 789.90 L 449.40 800.90 L 441.50 818.00 L 435.60 828.80 L 431.20 836.00 L 425.40 844.20 L 430.70 871.70 L 439.40 920.10 L 448.10 974.10 L 452.20 1003.40 L 444.10 1007.90 L 441.00 980.40 L 436.80 948.20 Z"
                      fill="#216d49"
                      fill-rule="nonzero"
                      group-id="5,44"
                      id="联合_9"
                      node-id="49"
                      stroke="none"
                      target-height="584.4"
                      target-width="245.80002"
                      target-x="256.4"
                      target-y="423.5"
                    />
                    <path
                      d="M 449.60 1007.80 L 451.70 992.20 L 454.60 974.90 L 459.30 953.50 L 462.20 941.90 L 465.70 929.50 L 469.70 917.00 L 474.30 904.30 L 479.30 892.30 L 484.70 880.50 L 490.60 868.90 L 496.90 857.50 L 503.40 846.60 L 510.10 836.10 L 524.00 816.20 L 530.90 807.40 L 544.80 790.90 L 551.20 784.10 L 557.90 777.50 L 564.90 771.30 L 572.20 765.30 L 579.70 759.70 L 590.00 752.70 L 600.50 746.20 L 611.20 740.20 L 632.80 729.60 L 643.40 725.10 L 659.20 718.90 L 673.80 713.80 L 688.10 709.20 L 720.40 700.10 L 725.60 698.30 L 731.00 695.90 L 736.50 692.90 L 741.70 689.40 L 746.90 685.40 L 757.10 676.10 L 766.70 665.50 L 773.30 656.90 L 779.40 648.10 L 786.50 636.00 L 792.20 624.00 L 796.30 612.80 L 796.50 617.20 L 796.30 621.90 L 795.60 627.00 L 793.10 637.10 L 791.40 642.30 L 788.40 649.90 L 781.80 664.00 L 775.40 675.10 L 772.90 678.60 L 770.60 681.40 L 769.80 681.90 L 772.20 680.40 L 794.90 669.40 L 820.20 656.20 L 837.70 645.90 L 845.80 640.50 L 836.50 654.10 L 831.70 662.00 L 825.00 674.10 L 818.40 687.10 L 812.20 700.40 L 806.50 713.70 L 801.30 726.90 L 796.90 739.30 L 793.10 751.30 L 790.30 761.60 L 788.70 768.40 L 787.40 778.50 L 790.20 776.80 L 793.20 774.40 L 796.30 771.00 L 799.70 766.50 L 802.40 761.90 L 805.30 756.30 L 808.30 749.40 L 811.50 741.10 L 815.10 730.20 L 818.80 716.90 L 822.70 700.90 L 822.70 708.90 L 821.50 724.90 L 820.30 732.80 L 818.30 743.30 L 815.80 753.50 L 812.90 763.40 L 806.20 782.60 L 802.50 791.50 L 796.70 804.30 L 791.10 815.60 L 785.40 826.10 L 775.90 841.90 L 769.80 851.10 L 779.60 846.10 L 797.00 838.40 L 821.10 829.20 L 845.70 821.50 L 868.00 815.90 L 812.70 845.50 L 794.80 855.30 L 771.20 869.20 L 760.00 876.80 L 751.70 883.80 L 745.10 888.60 L 705.20 915.90 L 692.30 926.00 L 681.20 936.40 L 677.70 938.90 L 673.00 941.90 L 665.30 946.00 L 655.70 950.60 L 633.70 959.90 L 609.20 969.30 L 584.20 978.20 L 560.60 986.10 L 519.70 999.00 L 479.60 1009.40 L 456.10 1014.90 L 453.10 1014.60 L 450.90 1013.50 L 449.80 1012.30 L 449.30 1011.10 L 449.20 1009.80 L 449.60 1007.80 Z"
                      fill="#b7d99d"
                      fill-rule="nonzero"
                      group-id="6,45"
                      id="路径_129"
                      node-id="51"
                      stroke="none"
                      target-height="402.10004"
                      target-width="418.8"
                      target-x="449.2"
                      target-y="612.8"
                    />
                    <path
                      d="M 449.40 1007.80 L 474.60 991.00 L 502.80 971.30 L 501.90 960.70 L 501.60 952.80 L 502.20 935.00 L 504.40 917.70 L 506.10 908.60 L 508.40 898.90 L 511.40 888.40 L 517.00 872.80 L 524.60 856.00 L 529.00 847.90 L 533.90 839.50 L 539.50 831.00 L 545.80 822.30 L 540.70 830.30 L 536.10 838.30 L 528.30 854.40 L 522.20 870.50 L 519.60 878.50 L 515.60 893.90 L 530.00 886.70 L 545.20 877.80 L 559.20 868.00 L 570.20 858.90 L 575.50 853.90 L 580.30 848.60 L 584.80 843.00 L 590.70 834.20 L 595.10 824.80 L 592.80 831.90 L 589.90 838.50 L 586.50 844.80 L 582.70 850.80 L 578.60 856.50 L 569.30 866.90 L 559.50 876.00 L 551.90 882.00 L 544.50 887.20 L 530.70 895.70 L 519.80 901.30 L 513.60 904.10 L 511.90 914.40 L 510.60 924.70 L 509.80 935.00 L 509.40 945.40 L 509.40 955.80 L 509.80 966.20 L 532.80 949.40 L 555.40 932.10 L 577.80 914.60 L 599.80 896.60 L 621.50 878.20 L 642.90 859.50 L 642.70 851.90 L 642.90 846.00 L 643.60 837.90 L 645.60 825.90 L 649.20 811.60 L 651.80 804.00 L 655.10 795.60 L 658.80 787.50 L 663.30 779.00 L 668.70 770.00 L 677.90 756.80 L 689.50 743.00 L 684.00 750.30 L 678.80 757.80 L 674.00 765.60 L 669.70 773.70 L 665.70 781.90 L 662.20 790.40 L 674.80 787.60 L 687.60 783.20 L 694.80 779.90 L 704.40 774.50 L 714.00 767.60 L 718.60 763.50 L 723.10 758.90 L 727.30 754.00 L 731.10 748.50 L 734.70 742.40 L 730.10 752.20 L 727.50 756.60 L 724.50 760.80 L 720.10 766.00 L 715.40 770.80 L 710.50 775.10 L 705.30 779.10 L 694.80 785.80 L 686.90 790.10 L 679.60 793.40 L 672.50 796.10 L 658.70 800.40 L 656.00 810.00 L 654.10 818.60 L 652.70 826.80 L 651.30 840.30 L 651.20 852.00 L 678.30 826.60 L 691.90 813.40 L 705.20 799.90 L 731.00 772.20 L 743.50 758.00 L 755.50 743.70 L 767.10 729.10 L 778.30 714.30 L 788.90 699.50 L 798.70 684.60 L 791.60 696.40 L 783.90 708.30 L 775.60 720.30 L 766.80 732.40 L 754.60 748.20 L 741.70 763.90 L 728.10 779.60 L 714.20 794.90 L 699.90 810.10 L 685.20 825.00 L 655.20 853.90 L 640.20 867.80 L 617.40 888.10 L 595.40 907.00 L 610.40 906.90 L 620.80 906.20 L 634.50 904.90 L 654.50 902.00 L 666.40 899.70 L 668.20 894.40 L 670.10 890.50 L 673.20 885.20 L 677.00 879.70 L 682.50 872.90 L 691.60 863.50 L 703.90 852.90 L 719.90 841.30 L 728.70 835.70 L 739.00 829.70 L 750.70 823.30 L 738.70 831.60 L 720.00 845.80 L 711.60 852.80 L 699.20 864.60 L 693.80 870.30 L 686.40 879.60 L 682.20 885.90 L 679.60 890.50 L 677.00 897.30 L 701.50 890.70 L 725.50 882.60 L 749.00 873.00 L 771.90 862.10 L 760.40 868.90 L 749.00 875.20 L 737.60 880.80 L 725.90 885.90 L 714.40 890.50 L 703.10 894.60 L 680.70 901.50 L 670.20 904.30 L 654.50 907.80 L 640.30 910.50 L 626.60 912.70 L 604.00 915.20 L 584.30 916.30 L 563.10 933.60 L 524.70 963.70 L 492.50 987.80 L 455.10 1014.30 Z"
                      fill="#69a148"
                      fill-rule="nonzero"
                      group-id="6,46"
                      id="联合_10"
                      node-id="52"
                      stroke="none"
                      target-height="329.7"
                      target-width="349.30002"
                      target-x="449.4"
                      target-y="684.6"
                    />
                  </g>
                </svg>