<?xml version="1.0" standalone="no"?><!DOCTYPE svg PUBLIC "-//W3C//DTD SVG 1.1//EN" "http://www.w3.org/Graphics/SVG/1.1/DTD/svg11.dtd"><svg t="1727618483333" class="icon" viewBox="0 0 1024 1024" version="1.1" xmlns="http://www.w3.org/2000/svg" p-id="4391" xmlns:xlink="http://www.w3.org/1999/xlink" width="200" height="200"><path d="M624.06 128.73c-21.63-38.6-62.92-64.68-110.31-64.68H190.43c-69.8 0-126.38 56.58-126.38 126.38v323.32c0 47.39 26.08 88.68 64.68 110.31 18.25 10.23 39.29 16.06 61.7 16.06h323.32c69.79 0 126.37-56.58 126.37-126.37V190.43c0-22.41-5.83-43.45-16.06-61.7z m-48.01 384.41c0 34.74-28.17 62.91-62.91 62.91h-321.5c-34.75 0-62.91-28.17-62.91-62.91v-321.5c0-34.75 28.16-62.91 62.91-62.91h321.5c34.74 0 62.91 28.16 62.91 62.91v321.5z"  p-id="4392"></path><path d="M960.17 510.27v323.31c0 69.8-56.58 126.38-126.38 126.38H510.47c-47.02 0-88.05-25.68-109.81-63.79-10.55-18.45-16.57-39.82-16.57-62.59V640.12h64.68v192.85c0 34.75 28.17 62.91 62.91 62.91h321.5c34.74 0 62.91-28.16 62.91-62.91V511.48c0-34.75-28.17-62.91-62.91-62.91H640.12v-64.68h193.67c22.69 0 43.97 5.98 62.38 16.44 38.22 21.73 64 62.83 64 109.94zM495.79 287.94H208.35c-8.8 0-15.93-7.13-15.93-15.93s7.13-15.93 15.93-15.93h287.43c8.8 0 15.93 7.13 15.93 15.93 0.01 8.8-7.13 15.93-15.92 15.93z" p-id="4393"></path><path d="M368 208.24v287.43c0 8.8-7.13 15.93-15.93 15.93s-15.93-7.13-15.93-15.93V208.24c0-8.8 7.13-15.93 15.93-15.93S368 199.44 368 208.24z"  p-id="4394"></path><path d="M496.11 384H208.67c-8.8 0-15.93-7.13-15.93-15.93s7.13-15.93 15.93-15.93H496.1c8.8 0 15.93 7.13 15.93 15.93 0.01 8.8-7.12 15.93-15.92 15.93z" p-id="4395"></path><path d="M224.6 272.01v95.85c0 8.8-7.13 15.93-15.93 15.93s-15.93-7.13-15.93-15.93v-95.85c0-8.8 7.13-15.93 15.93-15.93s15.93 7.13 15.93 15.93zM511.33 272.01v95.85c0 8.8-7.13 15.93-15.93 15.93s-15.93-7.13-15.93-15.93v-95.85c0-8.8 7.13-15.93 15.93-15.93s15.93 7.13 15.93 15.93zM784.2 831.05c-9.19 2.46-18.64-2.99-21.1-12.18l-76.38-285.05c-2.46-9.19 2.99-18.64 12.18-21.1 9.19-2.46 18.64 2.99 21.1 12.18l76.38 285.05c2.47 9.2-2.99 18.64-12.18 21.1z" p-id="4396"></path><path d="M622.45 831.14c-9.19-2.46-14.64-11.91-12.18-21.1L686.65 525c2.46-9.19 11.91-14.64 21.1-12.18 9.19 2.46 14.64 11.91 12.18 21.1l-76.38 285.05c-2.46 9.18-11.9 14.63-21.1 12.17z"  p-id="4397"></path><path d="M743.66 719.26H666.4c-8.49 0-15.37-6.88-15.37-15.37 0-8.49 6.88-15.37 15.37-15.37h77.26c8.49 0 15.37 6.88 15.37 15.37 0 8.48-6.88 15.37-15.37 15.37zM320.06 821.29v67.14c-90.2-22.82-161.16-93.93-183.75-184.21h66.8c19.19 54.57 62.41 97.82 116.95 117.07zM888.47 320.22h-67.13c-19.12-54.35-62.07-97.47-116.31-116.82v-66.88c89.95 22.82 160.74 93.7 183.44 183.7z"  p-id="4398"></path></svg>