<?xml version="1.0" standalone="no"?><!DOCTYPE svg PUBLIC "-//W3C//DTD SVG 1.1//EN" "http://www.w3.org/Graphics/SVG/1.1/DTD/svg11.dtd"><svg t="1727600866788" class="icon" viewBox="0 0 1024 1024" version="1.1" xmlns="http://www.w3.org/2000/svg" p-id="27488" xmlns:xlink="http://www.w3.org/1999/xlink" width="200" height="200"><path d="M716.64 315.36a107.904 107.904 0 0 1 54.208 31.232 142.72 142.72 0 0 1 20.768 27.776c0.288 1.088-37.408 26.4-60.256 40.576-0.832 0.544-4.128-3.04-7.84-8.544a49.12 49.12 0 0 0-40.736-24.48c-26.272-1.792-43.2 11.968-43.072 34.944a31.776 31.776 0 0 0 3.712 16.224c5.792 11.968 16.512 19.2 50.208 33.696 62.048 26.688 88.608 44.288 105.12 69.344a125.76 125.76 0 0 1 10.048 105.6 116.192 116.192 0 0 1-96 68.64 265.6 265.6 0 0 1-66.048-0.672 159.264 159.264 0 0 1-88.192-45.952 153.12 153.12 0 0 1-22.56-33.44 64.768 64.768 0 0 1 8-4.992l32.192-18.56 24.896-14.432 5.216 7.712a116.352 116.352 0 0 0 32.896 31.52 80.48 80.48 0 0 0 84.352-4.256 37.664 37.664 0 0 0 4.8-48c-6.752-9.6-20.512-17.76-59.584-34.656a214.4 214.4 0 0 1-81.6-50.208 114.304 114.304 0 0 1-23.808-43.328 173.536 173.536 0 0 1-1.504-55.296 105.6 105.6 0 0 1 89.024-82.4 219.552 219.552 0 0 1 65.76 1.952z m-203.488 36.192l0.288 35.488h-112.832v320.544h-79.808V387.04H208v-34.816a341.088 341.088 0 0 1 0.96-35.776c0.416-0.544 69.056-0.832 152.288-0.672l151.488 0.416z" fill="#007ACC" p-id="27489"></path><path d="M64 485.44c59.008 0 67.2-39.136 67.2-74.304a705.408 705.408 0 0 0-6.688-84.256 705.856 705.856 0 0 1-6.496-83.36c0-92.352 49.888-131.52 120.544-131.52H256v55.264h-14.944c-49.056 0-65.632 32-65.632 86.4a519.2 519.2 0 0 0 5.824 71.264 564.64 564.64 0 0 1 5.824 76.256c0.8 64.256-22.4 96.352-59.904 108.448v1.952c37.44 11.04 60.8 45.184 59.904 109.44a550.4 550.4 0 0 1-5.824 76.256 533.376 533.376 0 0 0-5.824 72.32c0 56.16 19.2 87.296 65.632 87.296H256V912h-17.472c-68.96 0-120.544-36.128-120.544-137.6a686.816 686.816 0 0 1 6.624-82.304 658.752 658.752 0 0 0 6.592-81.184c0-31.136-8.32-74.304-67.2-74.304zM957.984 538.08c-59.008 0-67.2 43.136-67.2 74.272a672 672 0 0 0 6.624 81.312 674.432 674.432 0 0 1 6.688 82.304c0 101.344-52.384 137.6-120.544 137.6h-17.472v-55.296h14.144c46.56-0.992 66.464-31.136 66.464-87.296 0-24.096-3.2-47.232-5.824-72.32a546.784 546.784 0 0 1-6.624-76.256c0-64.224 23.296-98.4 59.84-109.44v-1.92c-36.544-12.096-59.84-44.224-59.84-108.448a562.624 562.624 0 0 1 6.624-76.256 707.648 707.648 0 0 0 5.824-71.264c0-54.176-17.472-85.312-65.632-86.4h-14.944V113.536h16.64c70.656 0 121.344 39.136 121.344 131.488a691.776 691.776 0 0 1-6.688 83.2 719.488 719.488 0 0 0-6.624 84.256c0 35.2 8.32 74.272 67.2 74.272z" fill="#33A9DC" p-id="27490"></path><path d="M435.04 848l-38.08-43.776-38.112 43.744-38.336-43.808-38.304 43.776-38.24-43.776-24.544 28.096L192 811.552l51.968-59.52 38.24 43.808 38.304-43.776 38.272 43.776 38.176-43.84 38.144 43.776 38.112-43.712 38.368 43.808 38.272-43.84 38.272 43.84 38.4-43.776 38.304 43.776 38.4-43.808 38.24 43.808 38.368-43.744L832 811.488l-27.392 20.8-24.768-28.192-38.464 43.808-38.208-43.744-38.368 43.744-38.304-43.776-38.432 43.776-38.208-43.744-38.24 43.744-38.336-43.744-38.24 43.84z" fill="#C1272D" p-id="27491"></path></svg>